#!OML:ASF E:\Style4\Style4.ASF
:FULLY-SPECIFIED
:DEGREES
3486
root -0.331524 17.6815 -3.00424 4.01377 -0.585053 1.46656
lowerback 12.5589 2.19849 -0.0433857
upperback 5.13142 2.90803 0.602442
thorax -1.69313 1.44039 0.250425
lowerneck -1.2631 -4.97757 -6.20623
upperneck 1.84245 -6.59864 4.13845
head 1.16693 -3.29918 2.26632
rclavicle 5.58585e-014 -1.07344e-014
rhumerus 38.8507 -6.82064 -79.1393
rradius 28.1843
rwrist -61.8712
rhand -4.54203 9.0325
rfingers 7.12502
rthumb 21.2334 -19.8245
lclavicle 5.58585e-014 -1.07344e-014
lhumerus 37.8714 -15.8094 68.2762
lradius 44.8981
lwrist 68.0804
lhand 2.56781 32.9609
lfingers 7.12502
lthumb 28.0475 60.8845
rfemur -24.2108 -0.120295 17.4865
rtibia 36.801
rfoot -15.4909 -11.2474
rtoes -10.4823
lfemur -21.7631 2.05037 -20.5118
ltibia 35.9761
lfoot -17.7815 9.09588
ltoes -13.84
3487
root -0.332467 17.6743 -3.00255 3.98599 -0.560375 1.49376
lowerback 12.5616 2.19105 -0.0812667
upperback 5.22165 2.89325 0.600521
thorax -1.60209 1.43272 0.273893
lowerneck -1.16543 -4.94178 -6.17671
upperneck 1.87032 -6.55502 4.04216
head 1.15107 -3.27916 2.23262
rclavicle -1.59028e-015 -1.98785e-015
rhumerus 37.846 -6.1937 -78.4592
rradius 28.9088
rwrist -62.5017
rhand -4.68071 9.02229
rfingers 7.12502
rthumb 21.1002 -19.8496
lclavicle -1.59028e-015 -1.98785e-015
lhumerus 37.2528 -15.9355 68.4576
lradius 45.4694
lwrist 68.3465
lhand 2.43517 33.048
lfingers 7.12502
lthumb 27.9207 60.9923
rfemur -24.2465 -0.161159 17.4557
rtibia 36.9382
rfoot -15.5931 -11.2094
rtoes -10.3292
lfemur -21.8036 2.0563 -20.5426
ltibia 36.1205
lfoot -17.8179 9.00284
ltoes -13.5707
3488
root -0.332911 17.6696 -2.99949 3.93876 -0.5374 1.51702
lowerback 12.5663 2.18025 -0.118071
upperback 5.31575 2.87447 0.608885
thorax -1.50847 1.4229 0.30796
lowerneck -1.03607 -4.91383 -6.23573
upperneck 1.92094 -6.52392 4.01329
head 1.14413 -3.26581 2.2372
rclavicle 2.62396e-014 -1.98785e-014
rhumerus 36.8981 -5.64043 -77.9131
rradius 29.5964
rwrist -63.0235
rhand -4.90015 9.06709
rfingers 7.12502
rthumb 20.8893 -19.8282
lclavicle 2.62396e-014 -1.98785e-014
lhumerus 36.7064 -16.0427 68.6008
lradius 46.0558
lwrist 68.7204
lhand 2.31203 33.3166
lfingers 7.12502
lthumb 27.803 61.28
rfemur -24.2467 -0.220869 17.4321
rtibia 37.0759
rfoot -15.7 -11.1921
rtoes -10.2256
lfemur -21.8023 2.02924 -20.5655
ltibia 36.2499
lfoot -17.9237 9.03699
ltoes -13.8434
3489
root -0.332598 17.664 -2.99739 3.92757 -0.543146 1.54747
lowerback 12.4906 2.19652 -0.142113
upperback 5.44499 2.89252 0.609915
thorax -1.33412 1.43166 0.326359
lowerneck -0.897646 -4.92882 -6.28953
upperneck 1.89367 -6.55044 4.01261
head 1.11489 -3.28055 2.24975
rclavicle -2.38542e-015 1.90833e-014
rhumerus 36.021 -5.06804 -77.273
rradius 30.3742
rwrist -63.75
rhand -5.14811 9.05931
rfingers 7.12502
rthumb 20.6511 -19.8621
lclavicle -2.38542e-015 1.90833e-014
lhumerus 36.2947 -16.1361 68.752
lradius 46.6755
lwrist 69.1291
lhand 2.19679 33.7854
lfingers 7.12502
lthumb 27.6928 61.7665
rfemur -24.3019 -0.273858 17.3992
rtibia 37.2193
rfoot -15.8096 -11.1498
rtoes -10.2779
lfemur -21.843 2.03916 -20.6054
ltibia 36.3765
lfoot -18.0047 9.0804
ltoes -14.0768
3490
root -0.333261 17.6575 -2.996 3.9473 -0.557652 1.54893
lowerback 12.4427 2.2113 -0.138586
upperback 5.55064 2.91156 0.6001
thorax -1.19747 1.44131 0.31633
lowerneck -0.842653 -4.94961 -6.30512
upperneck 1.94001 -6.58162 4.00947
head 1.12234 -3.29702 2.25167
rclavicle -3.37934e-015 -3.18055e-015
rhumerus 35.1844 -4.48003 -76.663
rradius 31.1662
rwrist -64.5258
rhand -5.35898 9.01879
rfingers 7.12502
rthumb 20.4485 -19.9245
lclavicle -3.37934e-015 -3.18055e-015
lhumerus 35.9146 -16.2679 68.8002
lradius 47.2525
lwrist 69.465
lhand 2.15991 34.0869
lfingers 7.12502
lthumb 27.6575 62.0736
rfemur -24.3936 -0.302949 17.4018
rtibia 37.3405
rfoot -15.8758 -11.1201
rtoes -10.3412
lfemur -21.9347 2.05559 -20.6058
ltibia 36.5117
lfoot -18.0753 9.13273
ltoes -14.2514
3491
root -0.335118 17.6511 -2.99731 3.95688 -0.56216 1.49224
lowerback 12.476 2.20608 -0.12269
upperback 5.62397 2.90661 0.633006
thorax -1.13971 1.43861 0.342721
lowerneck -0.888684 -4.95851 -6.3781
upperneck 2.163 -6.5917 3.97477
head 1.20371 -3.30392 2.24963
rclavicle -1.98785e-015 -4.77083e-015
rhumerus 34.409 -3.97184 -76.2372
rradius 31.9181
rwrist -65.132
rhand -5.49122 8.88187
rfingers 7.12502
rthumb 20.3214 -20.075
lclavicle -1.98785e-015 -4.77083e-015
lhumerus 35.5008 -16.4229 68.7726
lradius 47.7894
lwrist 69.6754
lhand 2.16924 34.1509
lfingers 7.12502
lthumb 27.6664 62.1362
rfemur -24.4782 -0.296142 17.4796
rtibia 37.4473
rfoot -15.8916 -11.1687
rtoes -10.4507
lfemur -22.0311 2.08535 -20.5336
ltibia 36.6503
lfoot -18.1908 9.09881
ltoes -14.2346
3492
root -0.338284 17.6465 -2.99703 3.94146 -0.549153 1.40491
lowerback 12.4938 2.19132 -0.0769521
upperback 5.70479 2.89282 0.684135
thorax -1.06523 1.4318 0.373243
lowerneck -0.874709 -4.97828 -6.46165
upperneck 2.3403 -6.6185 3.93035
head 1.26109 -3.31975 2.24788
rclavicle 1.31198e-014 3.57812e-015
rhumerus 33.7702 -3.55739 -75.9379
rradius 32.466
rwrist -65.6388
rhand -5.42181 8.87889
rfingers 7.12502
rthumb 20.3881 -20.0708
lclavicle 1.31198e-014 3.57812e-015
lhumerus 35.0725 -16.5733 68.7782
lradius 48.3327
lwrist 69.9013
lhand 1.9185 33.9902
lfingers 7.12502
lthumb 27.4266 62.0138
rfemur -24.509 -0.24747 17.5911
rtibia 37.5439
rfoot -15.9386 -11.2136
rtoes -10.3885
lfemur -22.0941 2.12815 -20.4152
ltibia 36.7756
lfoot -18.2303 8.93522
ltoes -13.6904
3493
root -0.340104 17.643 -2.99603 3.90618 -0.517747 1.37949
lowerback 12.5301 2.16669 -0.0785254
upperback 5.77709 2.86038 0.71527
thorax -1.01064 1.41519 0.411057
lowerneck -0.806012 -4.9809 -6.52558
upperneck 2.44605 -6.62584 3.91447
head 1.28536 -3.32548 2.25461
rclavicle 2.0276e-014 0
rhumerus 33.1923 -3.03995 -75.5921
rradius 32.956
rwrist -66.1715
rhand -5.39038 8.83545
rfingers 7.12502
rthumb 20.4183 -20.111
lclavicle 2.0276e-014 0
lhumerus 34.632 -16.6686 68.8133
lradius 48.7873
lwrist 70.017
lhand 1.63899 33.6771
lfingers 7.12502
lthumb 27.1593 61.7427
rfemur -24.5157 -0.278016 17.6301
rtibia 37.6504
rfoot -15.9948 -11.1987
rtoes -10.3687
lfemur -22.1189 2.12924 -20.3801
ltibia 36.8865
lfoot -18.1641 8.86394
ltoes -13.5038
3494
root -0.340138 17.638 -2.9966 3.9046 -0.496881 1.47568
lowerback 12.5614 2.15319 -0.174561
upperback 5.82912 2.83137 0.705972
thorax -0.976927 1.39921 0.459148
lowerneck -0.731841 -4.97397 -6.5896
upperneck 2.48994 -6.62065 3.92051
head 1.28909 -3.32438 2.26966
rclavicle -1.63003e-014 9.54166e-015
rhumerus 32.5293 -2.42699 -75.0984
rradius 33.6061
rwrist -66.8845
rhand -5.46877 8.72768
rfingers 7.12502
rthumb 20.343 -20.2269
lclavicle -1.63003e-014 9.54166e-015
lhumerus 34.2194 -16.763 68.8354
lradius 49.1942
lwrist 70.139
lhand 1.38525 33.3748
lfingers 7.12502
lthumb 26.9165 61.4781
rfemur -24.5778 -0.314469 17.5227
rtibia 37.7692
rfoot -16.0773 -11.1671
rtoes -10.2702
lfemur -22.1809 2.11127 -20.4921
ltibia 36.9841
lfoot -18.1422 8.90975
ltoes -13.9962
3495
root -0.340223 17.6321 -2.99761 3.95876 -0.522305 1.53692
lowerback 12.5474 2.17675 -0.221016
upperback 5.85704 2.85632 0.673693
thorax -0.941076 1.41121 0.449708
lowerneck -0.736237 -4.9961 -6.63023
upperneck 2.60236 -6.65228 3.97696
head 1.33195 -3.34071 2.29358
rclavicle 1.78906e-014 7.95139e-016
rhumerus 31.8557 -1.97763 -74.6987
rradius 34.2018
rwrist -67.5103
rhand -5.5275 8.73848
rfingers 7.12502
rthumb 20.2865 -20.2221
lclavicle 1.78906e-014 7.95139e-016
lhumerus 33.8883 -16.9981 68.7388
lradius 49.5899
lwrist 70.3676
lhand 1.11931 33.0672
lfingers 7.12502
lthumb 26.662 61.2095
rfemur -24.7295 -0.355102 17.4569
rtibia 37.9068
rfoot -16.1481 -11.1173
rtoes -10.414
lfemur -22.2929 2.09841 -20.5578
ltibia 37.0828
lfoot -18.2308 8.90174
ltoes -13.8037
